# xmcd
#
# Track frame offsets:
#	150
#	13440
#	32406
#	45634
#	59238
#	72167
#	85105
#	96670
#	114586
#	126379
#
# Disc length: 1922 seconds
# Revision: 0
# Processed by: cddbd v1.5.2PL0 Copyright (c) Steve Scherf et al.
# Submitted via: dBpowerAMP V12.0
#
DISCID=9207800a
DTITLE=Lou Reid and Carolina - Callin' Me Back Home
DYEAR=2012
DGENRE=Country
TTITLE0=When the Love We Have is Gone
TTITLE1=Oh, Kentucky
TTITLE2=Another Lonely Day
TTITLE3=Blew Monday
TTITLE4=Some Hearts
TTITLE5=Kentucky Blues
TTITLE6=Emmaline
TTITLE7=Preacher Man
TTITLE8=Carolina Moonshine Man
TTITLE9=Big Old Red Guitar
EXTD=
EXTT0=
EXTT1=
EXTT2=
EXTT3=
EXTT4=
EXTT5=
EXTT6=
EXTT7=
EXTT8=
EXTT9=
PLAYORDER=
